# xmcd CD database file
#
# Track frame offsets:
#	150
#	10380
#	22865
#	40290
#	53421
#	64783
#	79352
#	97066
#	110011
#	122145
#	129723
#	144144
#	159114
#	172748
#	184156
#	196014
#	212801
#	226497
#
# Disc length: 3254 seconds
#
# Revision: 0
# Processed by: cddbd v1.5.2PL0 Copyright (c) Steve Scherf et al.
# Submitted via: CDex 1.51
#
DISCID=ea0cb412
DTITLE=Bourbon Skiffle Company - 35
DYEAR=2007
DGENRE=Jazz
TTITLE0=Bourbon Skiffle Company - I'm satisfied with my gal
TTITLE1=Bourbon Skiffle Company - Ace in the hole
TTITLE2=Bourbon Skiffle Company - Since my best gal turned me down
TTITLE3=Bourbon Skiffle Company - I shall not be moved
TTITLE4=Bourbon Skiffle Company - This train
TTITLE5=Bourbon Skiffle Company - Margie
TTITLE6=Bourbon Skiffle Company - Mary don't you weep
TTITLE7=Bourbon Skiffle Company - Casey Jones
TTITLE8=Bourbon Skiffle Company - So round, so firm, so fully packed
TTITLE9=Bourbon Skiffle Company - Rock Island Line
TTITLE10=Bourbon Skiffle Company - Sweet Sue
TTITLE11=Bourbon Skiffle Company - Polk Salad Annie
TTITLE12=Bourbon Skiffle Company - My town
TTITLE13=Bourbon Skiffle Company - Mississippi Mud
TTITLE14=Bourbon Skiffle Company - Tight like that
TTITLE15=Bourbon Skiffle Company - Have a drink on me
TTITLE16=Bourbon Skiffle Company - Battle of New Orleans
TTITLE17=Bourbon Skiffle Company - I'm just a Gigolo
EXTD=YEAR: 2007
EXTT0=
EXTT1=
EXTT2=
EXTT3=
EXTT4=
EXTT5=
EXTT6=
EXTT7=
EXTT8=
EXTT9=
EXTT10=
EXTT11=
EXTT12=
EXTT13=
EXTT14=
EXTT15=
EXTT16=
EXTT17=
PLAYORDER=
